<svg width="99" height="126" viewBox="0 0 99 126" fill="none" xmlns="http://www.w3.org/2000/svg">
<path d="M45.9551 61.7015C51.4163 48.1896 56.6988 35.0889 62.0718 21.7639C59.7275 20.5681 58.2244 19.8013 55.794 18.5616C62.6591 12.6374 69.0732 7.10227 76.4655 0.723083C78.2547 10.2389 79.8281 18.607 81.5285 27.6512C79.1882 27.2664 77.5526 26.9975 75.5009 26.6602C60.8987 64.3463 39.3331 97.1327 7.27588 122.219C20.1094 102.183 32.9429 82.148 45.9551 61.7015Z" fill="#13426D"/>
<path d="M66.5033 71.7502C75.2334 85.9419 83.6529 99.9042 91.9934 113.914C93.9688 117.231 95.6795 120.707 98.2369 125.456C88.8013 125.456 80.6503 125.605 72.5159 125.302C71.246 125.255 69.7315 123.352 68.8765 121.97C63.9095 113.938 59.0453 105.841 54.3044 97.6736C53.4771 96.2483 52.5128 93.8785 53.1238 92.8075C57.2428 85.5877 61.7693 78.6005 66.5033 71.7502Z" fill="#CEA856"/>
<path d="M13.8237 31.8436C9.5117 24.6215 5.41039 17.7774 0.520996 9.61811C10.5435 9.61811 19.0777 9.47788 27.5975 9.76772C28.8908 9.81171 30.4681 11.6354 31.314 13.0062C35.641 20.0178 39.9631 27.0483 43.8416 34.3102C44.8706 36.237 45.2522 39.4685 44.3356 41.3044C40.9313 48.1225 36.8619 54.6085 32.2941 62.514C25.8447 51.8147 19.9396 42.0181 13.8237 31.8436Z" fill="#CEA856"/>
</svg>
